# xmcd
#
# Track frame offsets:
# 150
# 12512
# 24600
# 35290
# 53512
# 67425
# 79155
# 91265
# 105555
# 118035
#
# Disc length: 1784 seconds
#
#
# Revision: 1
# Processed by: cddbd v1.4PL0 Copyright (c) Steve Scherf et al.
# Submitted via: FreeRIP 2.35 
#
DISCID=7d06f60a
DTITLE=El Cartel De Nuevo Leon - No Aguanto Más
DYEAR=2003
DGENRE=Other
TTITLE0=No Aguanto Más
TTITLE1=Hoy Se
TTITLE2=No Te Preocupes Por Mi
TTITLE3=Pajarillo
TTITLE4=Añoche Soñe
TTITLE5=Por Que No Acabas
TTITLE6=Seguire Sin Ti
TTITLE7=Siento Frio
TTITLE8=Pesadilla
TTITLE9=El Potrillo
EXTD=
EXTT0=
EXTT1=
EXTT2=
EXTT3=
EXTT4=
EXTT5=
EXTT6=
EXTT7=
EXTT8=
EXTT9=
PLAYORDER=
